<?xml version="1.0"?>
<svg version="1.1" xmlns="http://www.w3.org/2000/svg" viewBox="0.29 0.29 2.1 2.1">
	<defs>
		<style type="text/css">
			path {
				stroke: black;
				stroke-width: 0.02;
				fill: none;
			}
			line {
				stroke-linecap: square;
			}
			.subticks path {
			  stroke-width: 0.005;
			}
			g.letter text {
			  font-size: 0.25px;
			  text-anchor: middle ;
			  fill: #036564;
			  font-family:Bitstream Vera Sans;
			}
			g.letter g.times text {
			  fill: #222;
			}
			#seconds {
				stroke: #900;
				stroke-width: 0.02;
			}
			#minutes {
				stroke: #333;
				stroke-width: 0.07;
			}
			#hours {
				stroke: black;
				stroke-width: 0.1;
			}
		</style>
	</defs>


        <g transform="rotate(-90) translate(-1.3,1.3) ">
                <!-- clock face -->
                <circle cx="0" cy="0" r="1.0" fill="#fff" stroke-width="0.02" stroke="black"  />
</g>

<!-- letters round face OPENING TIMES -->
<g class="letter" transform="translate(1.3,1.3) ">
<text dy="-0.65" transform="rotate(-90)">O</text>
<text dy="-0.65" transform="rotate(-60)">P</text>
<text dy="-0.65" transform="rotate(-30)">E</text>
<text dy="-0.65" transform="rotate(0)">N</text>
<text dy="-0.65" transform="rotate(30)">I</text>
<text dy="-0.65" transform="rotate(60)">N</text>
<text dy="-0.65" transform="rotate(90)">G</text>
<g class="times">
<text dy="0.85"  transform="rotate(60)">T</text>
<text dy="0.85" transform="rotate(30)">I</text>
<text dy="0.85" transform="rotate(0)">M</text>
<text dy="0.85" transform="rotate(-30)">E</text>
<text dy="0.85" transform="rotate(-60)">S</text>
</g>
</g>



        <g transform="rotate(-90) translate(-1.3,1.3) ">

                <!-- tick marks -->
                <path d="
                        M  1.000  0.000 L  0.900  0.000
                        M  0.866  0.500 L  0.779  0.450
                        M  0.500  0.866 L  0.450  0.779
                        M  0.000  1.000 L  0.000  0.900
                        M -0.500  0.866 L -0.450  0.779
                        M -0.866  0.500 L -0.779  0.450
                        M -1.000  0.000 L -0.900  0.000
                        M -0.866 -0.500 L -0.779 -0.450
                        M -0.500 -0.866 L -0.450 -0.779
                        M  0.000 -1.000 L  0.000 -0.900
                        M  0.500 -0.866 L  0.450 -0.779
                        M  0.866 -0.500 L  0.779 -0.450
       "  />

        <!-- clock hands -->
	<line id="hours"   x1="0" y1="0" x2="0.70" y2="0"/>
	<line id="minutes" x1="0" y1="0" x2="0.85" y2="0"/>
	<line id="seconds" x1="0" y1="0" x2="0.90" y2="0"/>

  <!-- centre dot -->
  <circle cx="0" cy="0" r="0.03" fill="maroon" stroke="none"  />

</g>

<g class="subticks" transform="rotate(-90) translate(-1.3,1.3) ">


                <path class="subticks" transform="rotate(-5) " d="
                        M  1.000  0.000 L  0.900  0.000
                        M  0.866  0.500 L  0.779  0.450
                        M  0.500  0.866 L  0.450  0.779
                        M  0.000  1.000 L  0.000  0.900
                        M -0.500  0.866 L -0.450  0.779
                        M -0.866  0.500 L -0.779  0.450
                        M -1.000  0.000 L -0.900  0.000
                        M -0.866 -0.500 L -0.779 -0.450
                        M -0.500 -0.866 L -0.450 -0.779
                        M  0.000 -1.000 L  0.000 -0.900
                        M  0.500 -0.866 L  0.450 -0.779
                        M  0.866 -0.500 L  0.779 -0.450
       " />

                <path transform="rotate(-10) " d="
                        M  1.000  0.000 L  0.900  0.000
                        M  0.866  0.500 L  0.779  0.450
                        M  0.500  0.866 L  0.450  0.779
                        M  0.000  1.000 L  0.000  0.900
                        M -0.500  0.866 L -0.450  0.779
                        M -0.866  0.500 L -0.779  0.450
                        M -1.000  0.000 L -0.900  0.000
                        M -0.866 -0.500 L -0.779 -0.450
                        M -0.500 -0.866 L -0.450 -0.779
                        M  0.000 -1.000 L  0.000 -0.900
                        M  0.500 -0.866 L  0.450 -0.779
                        M  0.866 -0.500 L  0.779 -0.450
       " />

                <path transform="rotate(-15) " d="
                        M  1.000  0.000 L  0.900  0.000
                        M  0.866  0.500 L  0.779  0.450
                        M  0.500  0.866 L  0.450  0.779
                        M  0.000  1.000 L  0.000  0.900
                        M -0.500  0.866 L -0.450  0.779
                        M -0.866  0.500 L -0.779  0.450
                        M -1.000  0.000 L -0.900  0.000
                        M -0.866 -0.500 L -0.779 -0.450
                        M -0.500 -0.866 L -0.450 -0.779
                        M  0.000 -1.000 L  0.000 -0.900
                        M  0.500 -0.866 L  0.450 -0.779
                        M  0.866 -0.500 L  0.779 -0.450
       " />

                <path transform="rotate(-20) " d="
                        M  1.000  0.000 L  0.900  0.000
                        M  0.866  0.500 L  0.779  0.450
                        M  0.500  0.866 L  0.450  0.779
                        M  0.000  1.000 L  0.000  0.900
                        M -0.500  0.866 L -0.450  0.779
                        M -0.866  0.500 L -0.779  0.450
                        M -1.000  0.000 L -0.900  0.000
                        M -0.866 -0.500 L -0.779 -0.450
                        M -0.500 -0.866 L -0.450 -0.779
                        M  0.000 -1.000 L  0.000 -0.900
                        M  0.500 -0.866 L  0.450 -0.779
                        M  0.866 -0.500 L  0.779 -0.450
       " />

                <path transform="rotate(-25) " d="
                        M  1.000  0.000 L  0.900  0.000
                        M  0.866  0.500 L  0.779  0.450
                        M  0.500  0.866 L  0.450  0.779
                        M  0.000  1.000 L  0.000  0.900
                        M -0.500  0.866 L -0.450  0.779
                        M -0.866  0.500 L -0.779  0.450
                        M -1.000  0.000 L -0.900  0.000
                        M -0.866 -0.500 L -0.779 -0.450
                        M -0.500 -0.866 L -0.450 -0.779
                        M  0.000 -1.000 L  0.000 -0.900
                        M  0.500 -0.866 L  0.450 -0.779
                        M  0.866 -0.500 L  0.779 -0.450
       " />



	</g>
	<script>
		var seconds = document.getElementById("seconds");
		var minutes = document.getElementById("minutes");
		var hours   = document.getElementById("hours");

		function setClock(date) {
			var s = (date.getSeconds() + date.getMilliseconds() / 1000) * Math.PI / 30;
			var m = date.getMinutes() * Math.PI / 30 + s / 60;
			var h = date.getHours() * Math.PI / 6 + m / 12;

			seconds.setAttribute("x2", 0.85 * Math.cos(s));
			seconds.setAttribute("y2", 0.85 * Math.sin(s));
			seconds.setAttribute("x1", -0.20 * Math.cos(s));
			seconds.setAttribute("y1", -0.20 * Math.sin(s));

			minutes.setAttribute("x2", 0.75 * Math.cos(m));
			minutes.setAttribute("y2", 0.75 * Math.sin(m));
			minutes.setAttribute("x1", -0.1 * Math.cos(m));
			minutes.setAttribute("y1", -0.1 * Math.sin(m));

			hours.setAttribute("x2", 0.50 * Math.cos(h));
			hours.setAttribute("y2", 0.50 * Math.sin(h));
			hours.setAttribute("x1", -0.10 * Math.cos(h));
			hours.setAttribute("y1", -0.10 * Math.sin(h));
		}

		setInterval("setClock(new Date())", 50);
	</script>
</svg>
